<svg width="280" height="200" viewBox="0 0 280 200" fill="none" xmlns="http://www.w3.org/2000/svg">
  <defs>
    <linearGradient id="gradient1" x1="0%" y1="0%" x2="100%" y2="100%">
      <stop offset="0%" style="stop-color:#FFD700;stop-opacity:1" />
      <stop offset="100%" style="stop-color:#FFA500;stop-opacity:1" />
    </linearGradient>
    <linearGradient id="gradient2" x1="0%" y1="0%" x2="100%" y2="100%">
      <stop offset="0%" style="stop-color:#6A5ACD;stop-opacity:1" />
      <stop offset="100%" style="stop-color:#483D8B;stop-opacity:1" />
    </linearGradient>
  </defs>

  <path
    d="M100 20 L170 60 L170 140 L100 180 L30 140 L30 60 Z"
    fill="url(#gradient2)"
    stroke="#36454F"
    stroke-width="5"
    stroke-linejoin="round"
  />

  <path
    d="M100 35 L158 68 L158 132 L100 165 L42 132 L42 68 Z"
    fill="url(#gradient1)"
    stroke="#36454F"
    stroke-width="3"
    opacity="0.9"
    transform="translate(0, 5)"
  />

  <path
    d="M105 60 L130 85 L120 95 L110 85 L95 100 L85 90 L105 60 Z"
    fill="#FFFFFF"
    stroke="#36454F"
    stroke-width="2"
    transform="rotate(-10 100 100)"
  />
  <circle cx="95" cy="100" r="4" fill="#36454F" transform="rotate(-10 100 100)"/>

  <text x="185" y="105" font-family="Arial, sans-serif" font-size="38" font-weight="bold" fill="#36454F">
    Blog
    <tspan x="185" y="145" fill="#6A5ACD">Hive</tspan>
  </text>

  <text x="185" y="170" font-family="Arial, sans-serif" font-size="14" fill="#6A5ACD">
    Your Creative Community
  </text>

</svg>